<svg xmlns="http://www.w3.org/2000/svg" xmlns:xlink="http://www.w3.org/1999/xlink" id="Minecraft_Java_Editions" data-name="Minecraft Java Editions" viewBox="0 0 1518 492"><defs><style>.cls-1{fill:url(#Front_Face_Gradient);}.cls-2{fill:#3d3938;}.cls-3{fill:url(#linear-gradient);}.cls-4{fill:url(#linear-gradient-2);}.cls-5{fill:url(#linear-gradient-3);}.cls-6{fill:url(#linear-gradient-4);}.cls-7{fill:url(#linear-gradient-5);}.cls-8{fill:url(#linear-gradient-6);}.cls-9{fill:url(#linear-gradient-7);}.cls-10{fill:url(#linear-gradient-8);}.cls-11{fill:#998f8b;}.cls-12{fill:#262423;}.cls-13{fill:#6b6562;}.cls-14{fill:#171615;}.cls-15{fill:url(#Crack_Highlight_Gradient);}.cls-16{fill:url(#Crack_Highlight_Gradient-2);}.cls-17{fill:url(#Crack_Highlight_Gradient-3);}.cls-18{fill:url(#Crack_Highlight_Gradient-4);}.cls-19{fill:url(#Crack_Highlight_Gradient-5);}.cls-20{fill:url(#Crack_Highlight_Gradient-6);}.cls-21{fill:url(#Crack_Highlight_Gradient-7);}.cls-22{fill:url(#Crack_Highlight_Gradient-8);}.cls-23{fill:url(#Crack_Highlight_Gradient-9);}.cls-24{fill:url(#Crack_Highlight_Gradient-10);}.cls-25{fill:url(#Crack_Highlight_Gradient-11);}.cls-26{fill:url(#Crack_Highlight_Gradient-12);}.cls-27{fill:url(#Crack_Highlight_Gradient-13);}.cls-28{fill:url(#Crack_Highlight_Gradient-14);}.cls-29{fill:url(#Crack_Highlight_Gradient-15);}.cls-30{fill:url(#Crack_Highlight_Gradient-16);}.cls-31{fill:url(#Crack_Highlight_Gradient-17);}.cls-32{fill:url(#Crack_Highlight_Gradient-18);}.cls-33{fill:url(#Crack_Highlight_Gradient-19);}.cls-34{fill:url(#Crack_Highlight_Gradient-20);}.cls-35{fill:url(#Crack_Highlight_Gradient-21);}.cls-36{fill:url(#Crack_Highlight_Gradient-22);}.cls-37{fill:url(#Crack_Highlight_Gradient-23);}.cls-38{fill:url(#Crack_Highlight_Gradient-24);}.cls-39{fill:url(#Crack_Highlight_Gradient-25);}.cls-40{fill:url(#Crack_Highlight_Gradient-26);}.cls-41{fill:url(#Crack_Highlight_Gradient-27);}.cls-42{fill:url(#Crack_Highlight_Gradient-28);}.cls-43{fill:url(#Crack_Highlight_Gradient-29);}.cls-44{fill:url(#Crack_Highlight_Gradient-30);}.cls-45{fill:url(#Crack_Highlight_Gradient-31);}.cls-46{fill:url(#Crack_Highlight_Gradient-32);}.cls-47{fill:url(#Crack_Highlight_Gradient-33);}.cls-48{fill:url(#Crack_Highlight_Gradient-34);}.cls-49{fill:url(#Crack_Highlight_Gradient-35);}.cls-50{fill:url(#Crack_Highlight_Gradient-36);}.cls-51{fill:url(#Crack_Highlight_Gradient-37);}.cls-52{fill:url(#Crack_Highlight_Gradient-38);}.cls-53{fill:url(#Crack_Highlight_Gradient-39);}.cls-54{fill:url(#Crack_Highlight_Gradient-40);}.cls-55{fill:url(#Crack_Highlight_Gradient-41);}.cls-56{fill:url(#Crack_Highlight_Gradient-42);}.cls-57{fill:url(#Crack_Highlight_Gradient-43);}.cls-58{fill:url(#Crack_Highlight_Gradient-44);}.cls-59{fill:url(#Crack_Highlight_Gradient-45);}.cls-60{fill:url(#Crack_Highlight_Gradient-46);}.cls-61{fill:url(#Crack_Highlight_Gradient-47);}.cls-62{fill:url(#Crack_Highlight_Gradient-48);}.cls-63{fill:url(#Crack_Highlight_Gradient-49);}.cls-64{fill:url(#Crack_Highlight_Gradient-50);}.cls-65{fill:url(#Crack_Highlight_Gradient-51);}.cls-66{fill:url(#Crack_Highlight_Gradient-52);}.cls-67{fill:url(#Crack_Highlight_Gradient-53);}.cls-68{fill:url(#Crack_Highlight_Gradient-54);}.cls-69{fill:url(#Crack_Highlight_Gradient-55);}.cls-70{fill:url(#Crack_Highlight_Gradient-56);}.cls-71{fill:url(#Crack_Highlight_Gradient-57);}.cls-72{fill:url(#Crack_Highlight_Gradient-58);}.cls-73{fill:url(#Crack_Highlight_Gradient-59);}.cls-74{fill:url(#Crack_Highlight_Gradient-60);}.cls-75{fill:url(#Crack_Highlight_Gradient-61);}.cls-76{fill:url(#Crack_Highlight_Gradient-62);}.cls-77{fill:url(#Crack_Highlight_Gradient-63);}.cls-78{fill:url(#Crack_Highlight_Gradient-64);}.cls-79{fill:url(#Crack_Highlight_Gradient-65);}.cls-80{fill:url(#Crack_Highlight_Gradient-66);}.cls-81{fill:url(#Crack_Highlight_Gradient-67);}.cls-82{fill:url(#Crack_Highlight_Gradient-68);}.cls-83{fill:url(#Crack_Highlight_Gradient-69);}.cls-84{fill:url(#Crack_Highlight_Gradient-70);}.cls-85{fill:url(#Crack_Highlight_Gradient-71);}.cls-86{fill:url(#Crack_Highlight_Gradient-72);}.cls-87{fill:url(#Crack_Highlight_Gradient-73);}.cls-88{fill:#d0c5c0;}.cls-89{fill:#ede5e2;}</style><linearGradient id="Front_Face_Gradient" x1="759.06" y1="121.2" x2="759.06" y2="273.61" gradientUnits="userSpaceOnUse"><stop offset="0" stop-color="#d0c5c0"/><stop offset="0.99" stop-color="#aba09c"/></linearGradient><linearGradient id="linear-gradient" x1="436.13" y1="300.19" x2="436.13" y2="321.22" gradientUnits="userSpaceOnUse"><stop offset="0" stop-color="#3d3938"/><stop offset="1" stop-color="#1c1b1a"/></linearGradient><linearGradient id="linear-gradient-2" x1="632.37" y1="300.19" x2="632.37" y2="321.22" xlink:href="#linear-gradient"/><linearGradient id="linear-gradient-3" x1="777.47" y1="300.19" x2="777.47" y2="321.22" xlink:href="#linear-gradient"/><linearGradient id="linear-gradient-4" x1="885.76" y1="300.19" x2="885.76" y2="321.22" xlink:href="#linear-gradient"/><linearGradient id="linear-gradient-5" x1="957.46" y1="300.19" x2="957.46" y2="321.22" xlink:href="#linear-gradient"/><linearGradient id="linear-gradient-6" x1="1029.17" y1="300.19" x2="1029.17" y2="321.22" xlink:href="#linear-gradient"/><linearGradient id="linear-gradient-7" x1="1100.88" y1="300.19" x2="1100.88" y2="321.22" xlink:href="#linear-gradient"/><linearGradient id="linear-gradient-8" x1="525.77" y1="300.19" x2="525.77" y2="321.22" xlink:href="#linear-gradient"/><linearGradient id="Crack_Highlight_Gradient" x1="723.54" y1="142.7" x2="723.54" y2="272.48" gradientUnits="userSpaceOnUse"><stop offset="0" stop-color="#ede5e2"/><stop offset="1" stop-color="#d0c5c0"/></linearGradient><linearGradient id="Crack_Highlight_Gradient-2" x1="435.91" y1="142.7" x2="435.91" y2="272.48" xlink:href="#Crack_Highlight_Gradient"/><linearGradient id="Crack_Highlight_Gradient-3" x1="507.81" y1="142.7" x2="507.81" y2="272.48" xlink:href="#Crack_Highlight_Gradient"/><linearGradient id="Crack_Highlight_Gradient-4" x1="1352.72" y1="142.7" x2="1352.72" y2="272.48" xlink:href="#Crack_Highlight_Gradient"/><linearGradient id="Crack_Highlight_Gradient-5" x1="151.96" y1="142.7" x2="151.96" y2="272.48" xlink:href="#Crack_Highlight_Gradient"/><linearGradient id="Crack_Highlight_Gradient-6" x1="170.55" y1="142.7" x2="170.55" y2="272.48" xlink:href="#Crack_Highlight_Gradient"/><linearGradient id="Crack_Highlight_Gradient-7" x1="175.2" y1="142.7" x2="175.2" y2="272.48" xlink:href="#Crack_Highlight_Gradient"/><linearGradient id="Crack_Highlight_Gradient-8" x1="224.98" y1="142.7" x2="224.98" y2="272.48" xlink:href="#Crack_Highlight_Gradient"/><linearGradient id="Crack_Highlight_Gradient-9" x1="280.74" y1="142.7" x2="280.74" y2="272.48" xlink:href="#Crack_Highlight_Gradient"/><linearGradient id="Crack_Highlight_Gradient-10" x1="354.81" y1="142.7" x2="354.81" y2="272.48" xlink:href="#Crack_Highlight_Gradient"/><linearGradient id="Crack_Highlight_Gradient-11" x1="424.55" y1="142.7" x2="424.55" y2="272.48" xlink:href="#Crack_Highlight_Gradient"/><linearGradient id="Crack_Highlight_Gradient-12" x1="581.73" y1="142.95" x2="581.73" y2="272.38" xlink:href="#Crack_Highlight_Gradient"/><linearGradient id="Crack_Highlight_Gradient-13" x1="662.15" y1="142.7" x2="662.15" y2="272.48" xlink:href="#Crack_Highlight_Gradient"/><linearGradient id="Crack_Highlight_Gradient-14" x1="900.94" y1="142.7" x2="900.94" y2="272.48" xlink:href="#Crack_Highlight_Gradient"/><linearGradient id="Crack_Highlight_Gradient-15" x1="940.09" y1="142.7" x2="940.09" y2="272.48" xlink:href="#Crack_Highlight_Gradient"/><linearGradient id="Crack_Highlight_Gradient-16" x1="1039.12" y1="142.7" x2="1039.12" y2="272.48" xlink:href="#Crack_Highlight_Gradient"/><linearGradient id="Crack_Highlight_Gradient-17" x1="1103.54" y1="142.71" x2="1103.54" y2="272.48" xlink:href="#Crack_Highlight_Gradient"/><linearGradient id="Crack_Highlight_Gradient-18" x1="1022.77" y1="142.7" x2="1022.77" y2="272.48" xlink:href="#Crack_Highlight_Gradient"/><linearGradient id="Crack_Highlight_Gradient-19" x1="1053.43" y1="142.7" x2="1053.43" y2="272.48" xlink:href="#Crack_Highlight_Gradient"/><linearGradient id="Crack_Highlight_Gradient-20" x1="1108.63" y1="142.7" x2="1108.63" y2="272.48" xlink:href="#Crack_Highlight_Gradient"/><linearGradient id="Crack_Highlight_Gradient-21" x1="1182.22" y1="142.7" x2="1182.22" y2="272.48" xlink:href="#Crack_Highlight_Gradient"/><linearGradient id="Crack_Highlight_Gradient-22" x1="1366.18" y1="142.7" x2="1366.18" y2="272.48" xlink:href="#Crack_Highlight_Gradient"/><linearGradient id="Crack_Highlight_Gradient-23" x1="875.6" y1="142.7" x2="875.6" y2="272.48" xlink:href="#Crack_Highlight_Gradient"/><linearGradient id="Crack_Highlight_Gradient-24" x1="906.25" y1="142.69" x2="906.25" y2="272.48" xlink:href="#Crack_Highlight_Gradient"/><linearGradient id="Crack_Highlight_Gradient-25" x1="740.66" y1="142.7" x2="740.66" y2="272.48" xlink:href="#Crack_Highlight_Gradient"/><linearGradient id="Crack_Highlight_Gradient-26" x1="808.15" y1="142.7" x2="808.15" y2="272.48" xlink:href="#Crack_Highlight_Gradient"/><linearGradient id="Crack_Highlight_Gradient-27" x1="961.46" y1="142.7" x2="961.46" y2="272.48" xlink:href="#Crack_Highlight_Gradient"/><linearGradient id="Crack_Highlight_Gradient-28" x1="575.1" y1="142.7" x2="575.1" y2="272.48" xlink:href="#Crack_Highlight_Gradient"/><linearGradient id="Crack_Highlight_Gradient-29" x1="621.08" y1="142.7" x2="621.08" y2="272.48" xlink:href="#Crack_Highlight_Gradient"/><linearGradient id="Crack_Highlight_Gradient-30" x1="676.28" y1="142.7" x2="676.28" y2="272.48" xlink:href="#Crack_Highlight_Gradient"/><linearGradient id="Crack_Highlight_Gradient-31" x1="507.64" y1="142.7" x2="507.64" y2="272.48" xlink:href="#Crack_Highlight_Gradient"/><linearGradient id="Crack_Highlight_Gradient-32" x1="538.31" y1="142.7" x2="538.31" y2="272.48" xlink:href="#Crack_Highlight_Gradient"/><linearGradient id="Crack_Highlight_Gradient-33" x1="409.53" y1="142.7" x2="409.53" y2="272.48" xlink:href="#Crack_Highlight_Gradient"/><linearGradient id="Crack_Highlight_Gradient-34" x1="440.19" y1="142.7" x2="440.19" y2="272.48" xlink:href="#Crack_Highlight_Gradient"/><linearGradient id="Crack_Highlight_Gradient-35" x1="335.94" y1="142.7" x2="335.94" y2="272.48" xlink:href="#Crack_Highlight_Gradient"/><linearGradient id="Crack_Highlight_Gradient-36" x1="366.6" y1="142.7" x2="366.6" y2="272.48" xlink:href="#Crack_Highlight_Gradient"/><linearGradient id="Crack_Highlight_Gradient-37" x1="1007.66" y1="142.95" x2="1007.66" y2="272.08" xlink:href="#Crack_Highlight_Gradient"/><linearGradient id="Crack_Highlight_Gradient-38" x1="476.46" y1="142.7" x2="476.46" y2="272.48" xlink:href="#Crack_Highlight_Gradient"/><linearGradient id="Crack_Highlight_Gradient-39" x1="190.12" y1="142.7" x2="190.12" y2="272.48" xlink:href="#Crack_Highlight_Gradient"/><linearGradient id="Crack_Highlight_Gradient-40" x1="296.66" y1="142.7" x2="296.66" y2="272.48" xlink:href="#Crack_Highlight_Gradient"/><linearGradient id="Crack_Highlight_Gradient-41" x1="315.81" y1="142.7" x2="315.81" y2="272.48" xlink:href="#Crack_Highlight_Gradient"/><linearGradient id="Crack_Highlight_Gradient-42" x1="277.82" y1="142.7" x2="277.82" y2="272.48" xlink:href="#Crack_Highlight_Gradient"/><linearGradient id="Crack_Highlight_Gradient-43" x1="394.55" y1="142.7" x2="394.55" y2="272.48" xlink:href="#Crack_Highlight_Gradient"/><linearGradient id="Crack_Highlight_Gradient-44" x1="466.53" y1="142.7" x2="466.53" y2="272.48" xlink:href="#Crack_Highlight_Gradient"/><linearGradient id="Crack_Highlight_Gradient-45" x1="535.61" y1="142.7" x2="535.61" y2="272.48" xlink:href="#Crack_Highlight_Gradient"/><linearGradient id="Crack_Highlight_Gradient-46" x1="586.05" y1="142.7" x2="586.05" y2="272.48" xlink:href="#Crack_Highlight_Gradient"/><linearGradient id="Crack_Highlight_Gradient-47" x1="742.56" y1="142.7" x2="742.56" y2="272.48" xlink:href="#Crack_Highlight_Gradient"/><linearGradient id="Crack_Highlight_Gradient-48" x1="864.48" y1="142.7" x2="864.48" y2="272.48" xlink:href="#Crack_Highlight_Gradient"/><linearGradient id="Crack_Highlight_Gradient-49" x1="916.01" y1="142.7" x2="916.01" y2="272.48" xlink:href="#Crack_Highlight_Gradient"/><linearGradient id="Crack_Highlight_Gradient-50" x1="1288.32" y1="142.7" x2="1288.32" y2="272.48" xlink:href="#Crack_Highlight_Gradient"/><linearGradient id="Crack_Highlight_Gradient-51" x1="1377.79" y1="142.7" x2="1377.79" y2="272.48" xlink:href="#Crack_Highlight_Gradient"/><linearGradient id="Crack_Highlight_Gradient-52" x1="1200.48" y1="142.65" x2="1200.48" y2="271.85" xlink:href="#Crack_Highlight_Gradient"/><linearGradient id="Crack_Highlight_Gradient-53" x1="1198.85" y1="142.7" x2="1198.85" y2="272.48" xlink:href="#Crack_Highlight_Gradient"/><linearGradient id="Crack_Highlight_Gradient-54" x1="1236.37" y1="142.7" x2="1236.37" y2="272.48" xlink:href="#Crack_Highlight_Gradient"/><linearGradient id="Crack_Highlight_Gradient-55" x1="885.58" y1="142.84" x2="885.58" y2="272.04" xlink:href="#Crack_Highlight_Gradient"/><linearGradient id="Crack_Highlight_Gradient-56" x1="1034.34" y1="142.7" x2="1034.34" y2="272.47" xlink:href="#Crack_Highlight_Gradient"/><linearGradient id="Crack_Highlight_Gradient-57" x1="1056.93" y1="142.7" x2="1056.93" y2="272.47" xlink:href="#Crack_Highlight_Gradient"/><linearGradient id="Crack_Highlight_Gradient-58" x1="1074.75" y1="142.7" x2="1074.75" y2="272.47" xlink:href="#Crack_Highlight_Gradient"/><linearGradient id="Crack_Highlight_Gradient-59" x1="1074.41" y1="142.7" x2="1074.41" y2="272.48" xlink:href="#Crack_Highlight_Gradient"/><linearGradient id="Crack_Highlight_Gradient-60" x1="1042.23" y1="142.7" x2="1042.23" y2="272.48" xlink:href="#Crack_Highlight_Gradient"/><linearGradient id="Crack_Highlight_Gradient-61" x1="664.89" y1="142.7" x2="664.89" y2="272.48" xlink:href="#Crack_Highlight_Gradient"/><linearGradient id="Crack_Highlight_Gradient-62" x1="803.46" y1="142.7" x2="803.46" y2="272.48" xlink:href="#Crack_Highlight_Gradient"/><linearGradient id="Crack_Highlight_Gradient-63" x1="970.8" y1="142.7" x2="970.8" y2="272.48" xlink:href="#Crack_Highlight_Gradient"/><linearGradient id="Crack_Highlight_Gradient-64" x1="156.03" y1="142.7" x2="156.03" y2="272.48" xlink:href="#Crack_Highlight_Gradient"/><linearGradient id="Crack_Highlight_Gradient-65" x1="206.58" y1="142.7" x2="206.58" y2="272.48" xlink:href="#Crack_Highlight_Gradient"/><linearGradient id="Crack_Highlight_Gradient-66" x1="260.1" y1="142.7" x2="260.1" y2="272.48" xlink:href="#Crack_Highlight_Gradient"/><linearGradient id="Crack_Highlight_Gradient-67" x1="1211.59" y1="142.7" x2="1211.59" y2="272.48" xlink:href="#Crack_Highlight_Gradient"/><linearGradient id="Crack_Highlight_Gradient-68" x1="1250.25" y1="142.7" x2="1250.25" y2="272.48" xlink:href="#Crack_Highlight_Gradient"/><linearGradient id="Crack_Highlight_Gradient-69" x1="1155.1" y1="142.7" x2="1155.1" y2="272.48" xlink:href="#Crack_Highlight_Gradient"/><linearGradient id="Crack_Highlight_Gradient-70" x1="661.49" y1="142.7" x2="661.49" y2="272.48" xlink:href="#Crack_Highlight_Gradient"/><linearGradient id="Crack_Highlight_Gradient-71" x1="771.38" y1="142.7" x2="771.38" y2="272.48" xlink:href="#Crack_Highlight_Gradient"/><linearGradient id="Crack_Highlight_Gradient-72" x1="920.2" y1="142.7" x2="920.2" y2="272.48" xlink:href="#Crack_Highlight_Gradient"/><linearGradient id="Crack_Highlight_Gradient-73" x1="1065.09" y1="142.7" x2="1065.09" y2="272.48" xlink:href="#Crack_Highlight_Gradient"/></defs><path d="M1381.75,191.29l23.35-38.72L1392.15,111H501.74l-4.16,30.35L489.32,111H281.81l-7.14,28.57H257.41l-4.09,15.8L230.42,111H162.79L111.25,276.41l41.07,56.33h67.54l8.26-31.25H255.4l18.29,31.25h921.46l28.2-58.43h25.5L1272.53,228l25.29,104.78h70.11l38.82-56.42ZM780,230.54l.08-19.75H840l.61,19.75Z"/><path class="cls-1" d="M268.7,210.79H250.85L242.76,242H206.51l8.64-31.25H197.3l-18.12,63.52H124l47.3-151.83h51.23l-8.15,28.57h17.33l-8.13,29.43H258.7l7.62-29.43h17.32l7.15-28.57H342l-34,151.83H252.82Zm90.4-88.31h51.23L381.68,274.31H326.45Zm222,0H700.63l-1.13,28.57H630.19L628,180.48h70.35l-1.2,30.31H625.73L623.4,242h72.5l-1.27,32.27H565.77Zm136.61,0H837.24l.88,28.57H768.81l-.4,91h72.5l1,32.27H713Zm211.51,88.31H911.36l4.18,63.52H860.31l-6-151.83H973.85l5.85,58H962.12l1.38,15h17.72l7.95,78.79H934Zm-21.79-59.74,1.94,29.43H927l-2.2-29.43Zm220.12-28.57h119.53l6.9,28.57h-69.31l6.07,29.43h70.34l7.32,30.31H1197l13.1,63.52h-55.23ZM1306,151.05H1271.3l-7.15-28.57h119.54l8.9,28.57h-34.66l36.24,123.26h-55.23ZM498.66,226.3h-18l4.45-30.78H467.41l-12.1,78.79H400.09L427.4,122.48h51.23l-4.39,28.57h17.33l-4.26,29.43H504.9l7.88-58H564L547.36,274.31H492.13Zm611.8-103.82H990.93l16.65,151.83h55.23l-6.53-48h18l7,48h55.22ZM1070.2,178H1079l4.17,27.69h-11.87l-1.47-10.16h-17.72l1.38,10.16H1041.6L1038,178h8.78l-1-7.42h-20.41l-2.43-19.52H1046l2.32,17.06h17.48l-2.47-17.06h23.1l3.06,19.52h-20.42Z"/><polygon class="cls-2" points="381.68 274.31 326.45 274.31 350.07 321.24 402.4 321.24 381.68 274.31"/><polygon class="cls-3" points="400.09 274.31 419.85 321.24 472.18 321.24 455.31 274.31 400.09 274.31"/><polygon class="cls-4" points="565.77 274.31 576.85 321.24 698.97 321.24 694.63 274.31 565.77 274.31"/><polygon class="cls-5" points="841.9 274.31 838.53 321.24 716.41 321.24 713.04 274.31 841.9 274.31"/><polygon class="cls-6" points="860.31 274.31 915.54 274.31 908.31 321.24 855.98 321.24 860.31 274.31"/><polygon class="cls-7" points="933.95 274.31 925.75 321.24 978.09 321.24 989.17 274.31 933.95 274.31"/><polygon class="cls-8" points="1007.58 274.31 995.54 321.24 1047.87 321.24 1062.81 274.31 1007.58 274.31"/><polygon class="cls-9" points="1081.22 274.31 1065.32 321.24 1117.65 321.24 1136.44 274.31 1081.22 274.31"/><polygon class="cls-2" points="1154.85 274.31 1135.1 321.24 1187.43 321.24 1210.08 274.31 1154.85 274.31"/><polygon class="cls-2" points="1338.94 274.31 1309.55 321.24 1361.88 321.24 1394.17 274.31 1338.94 274.31"/><polygon class="cls-10" points="492.13 274.31 507.07 321.24 559.41 321.24 547.36 274.31 492.13 274.31"/><polygon class="cls-2" points="252.82 274.31 308.05 274.31 332.62 321.24 280.29 321.24 252.82 274.31"/><polygon class="cls-2" points="158.17 321.24 123.95 274.31 179.18 274.31 210.5 321.24 158.17 321.24"/><polygon class="cls-11" points="357.56 242.04 351 274.31 344.86 274.31 351.52 242.04 357.56 242.04"/><polygon class="cls-11" points="1042.33 258.02 1044.4 274.31 1038.26 274.31 1036.24 258.02 1042.33 258.02"/><polygon class="cls-12" points="351 274.31 357.95 288.93 351.91 288.93 344.86 274.31 351 274.31"/><polygon class="cls-11" points="427.37 258.02 424.63 274.31 418.5 274.31 421.28 258.02 427.37 258.02"/><polygon class="cls-12" points="528.95 274.31 533 288.93 526.97 288.93 522.81 274.31 528.95 274.31"/><polygon class="cls-12" points="590.31 274.31 596.32 303.07 590.38 303.07 584.18 274.31 590.31 274.31"/><polygon class="cls-12" points="198.38 303.07 195.26 298.41 177.35 298.41 180.56 303.07 198.38 303.07"/><polygon class="cls-12" points="1162.62 298.41 1144.71 298.41 1142.75 303.07 1160.56 303.07 1162.62 298.41"/><polygon class="cls-12" points="653.73 288.93 659.76 288.93 657.81 274.31 651.68 274.31 653.73 288.93"/><polygon class="cls-12" points="1320.93 303.07 1323.85 298.41 1341.76 298.41 1338.74 303.07 1320.93 303.07"/><polygon class="cls-12" points="323.11 303.07 320.66 298.41 302.75 298.41 305.29 303.07 323.11 303.07"/><polygon class="cls-11" points="1017.26 200.59 1016.66 195.52 998.94 195.52 999.49 200.59 1017.26 200.59"/><polygon class="cls-11" points="300.92 175.51 307.9 146.23 284.85 146.23 283.64 151.05 300.97 151.05 295.07 175.51 259.98 175.51 258.7 180.48 329.04 180.48 330.15 175.51 300.92 175.51"/><polygon class="cls-11" points="1355.22 122.48 1349.53 122.48 1357.93 151.05 1363.71 151.05 1355.22 122.48"/><polygon class="cls-11" points="1225.9 180.48 1220.04 180.48 1226.73 210.79 1232.68 210.79 1225.9 180.48"/><polygon class="cls-11" points="913.41 242.04 913.07 236.76 888.96 236.76 890.99 274.31 897.13 274.31 895.29 242.04 913.41 242.04"/><polygon class="cls-11" points="163.85 146.23 215.71 146.23 214.34 151.05 162.35 151.05 163.85 146.23"/><polygon class="cls-11" points="407.79 231.52 408.73 226.3 462.69 226.3 461.89 231.52 407.79 231.52"/><polygon class="cls-11" points="1327.49 231.52 1326.09 226.3 1380.05 226.3 1381.59 231.52 1327.49 231.52"/><polygon class="cls-11" points="1077.31 247.34 1076.54 242.04 1130.92 242.04 1131.83 247.34 1077.31 247.34"/><polygon class="cls-11" points="534.64 226.3 498.66 226.3 497.95 231.52 528.01 231.52 522.81 274.31 528.95 274.31 534.64 226.3"/><polygon class="cls-11" points="891.78 180.48 891.49 175.51 879.8 175.51 877.08 122.48 871.39 122.48 873.24 160.76 855.83 160.76 856.02 165.66 873.48 165.66 874.19 180.48 891.78 180.48"/><polygon class="cls-11" points="891.78 180.48 891.49 175.51 879.8 175.51 877.08 122.48 871.39 122.48 873.24 160.76 855.83 160.76 856.02 165.66 873.48 165.66 874.19 180.48 891.78 180.48"/><polygon class="cls-11" points="188.38 242.04 189.89 236.76 159.76 236.76 167.54 210.79 143.74 210.79 142.14 215.94 160.04 215.94 147.29 258.02 153.38 258.02 183.82 258.02 185.35 252.67 154.99 252.67 158.18 242.04 188.38 242.04"/><polygon class="cls-11" points="1219.32 151.05 1215.03 131.91 1186.43 131.91 1184.46 122.48 1178.77 122.48 1181.69 136.66 1210.36 136.66 1213.54 151.05 1219.32 151.05"/><polygon class="cls-11" points="577.23 160.76 594.64 160.76 594.19 165.66 576.73 165.66 577.23 160.76"/><polygon class="cls-11" points="569.56 236.76 569.02 242.04 587.15 242.04 584.18 274.31 590.31 274.31 593.66 236.76 569.56 236.76"/><polygon class="cls-11" points="474.98 146.23 457.7 146.23 456.92 151.05 474.24 151.05 474.98 146.23"/><polygon class="cls-11" points="561.41 146.23 509.55 146.23 508.9 151.05 560.88 151.05 561.41 146.23"/><polygon class="cls-12" points="1044.4 274.31 1038.26 274.31 1029.89 303.07 1035.84 303.07 1044.4 274.31"/><polygon class="cls-11" points="931.14 236.76 931.54 242.04 949.66 242.04 949.23 236.76 931.14 236.76"/><polygon class="cls-11" points="716.38 165.66 716.23 170.57 733.72 170.57 732.5 226.3 714.51 226.3 714.35 231.52 738.4 231.52 739.56 170.57 768.72 170.57 768.74 165.66 716.38 165.66"/><polygon class="cls-11" points="1173.21 242.04 1167.23 210.79 1143.43 210.79 1144.35 215.94 1162.25 215.94 1167.17 242.04 1173.21 242.04"/><polygon class="cls-11" points="774.4 274.31 768.27 274.31 768.33 260.71 774.42 260.71 774.4 274.31"/><polygon class="cls-12" points="774.45 288.93 768.41 288.93 768.27 274.31 774.4 274.31 774.45 288.93"/><polygon class="cls-12" points="895.18 288.93 889.14 288.93 890.99 274.31 897.13 274.31 895.18 288.93"/><polygon class="cls-11" points="382.8 146.23 378.9 165.66 384.72 165.66 387.61 151.05 404.93 151.05 405.84 146.23 382.8 146.23"/><polygon class="cls-11" points="671.74 242.04 671.19 252.67 652.97 252.67 651.68 274.31 657.81 274.31 658.74 258.02 677.01 258.02 677.78 242.04 671.74 242.04"/><polygon class="cls-12" points="424.63 274.31 435.95 303.07 430.01 303.07 418.5 274.31 424.63 274.31"/><polygon class="cls-13" points="167.54 210.79 166.77 213.36 142.94 213.36 143.74 210.79 167.54 210.79"/><polygon class="cls-13" points="159.76 236.76 161.98 239.41 189.14 239.4 189.89 236.76 159.76 236.76"/><polygon class="cls-13" points="154.99 252.67 157.23 255.34 184.59 255.34 185.35 252.67 154.99 252.67"/><polygon class="cls-13" points="163.85 146.23 215.71 146.23 215.02 148.64 163.1 148.64 163.85 146.23"/><polygon class="cls-13" points="284.85 146.23 284.25 148.64 307.32 148.64 307.9 146.23 284.85 146.23"/><polygon class="cls-13" points="300.97 151.05 303.28 153.47 297.4 177.99 259.34 177.99 259.98 175.51 295.07 175.51 300.97 151.05"/><polygon class="cls-13" points="300.92 175.51 303.25 177.99 329.6 177.99 330.15 175.51 300.92 175.51"/><polygon class="cls-13" points="160.04 215.94 162.24 218.51 150.34 258.02 147.29 258.02 160.04 215.94"/><polygon class="cls-13" points="378.9 165.66 381.81 165.66 385.2 148.64 405.39 148.64 405.84 146.23 382.8 146.23 378.9 165.66"/><polygon class="cls-13" points="357.56 242.04 357.02 244.69 354 244.69 347.93 274.31 344.86 274.31 351.52 242.04 357.56 242.04"/><polygon class="cls-13" points="456.92 151.05 459.8 151.05 460.19 148.64 474.61 148.64 474.98 146.23 457.7 146.23 456.92 151.05"/><polygon class="cls-13" points="509.55 146.23 561.41 146.23 561.14 148.64 509.23 148.64 509.55 146.23"/><polygon class="cls-13" points="408.73 226.3 462.69 226.3 462.29 228.9 408.26 228.9 408.73 226.3"/><polygon class="cls-13" points="427.37 258.02 421.28 258.02 418.5 274.31 421.56 274.31 423.87 260.71 426.92 260.71 427.37 258.02"/><polygon class="cls-13" points="498.66 226.3 498.31 228.9 534.33 228.9 534.64 226.3 498.66 226.3"/><polygon class="cls-13" points="528.01 231.52 530.7 234.14 525.88 274.31 522.81 274.31 528.01 231.52"/><polygon class="cls-13" points="577.23 160.76 576.98 163.21 594.41 163.21 594.64 160.76 577.23 160.76"/><polygon class="cls-13" points="569.56 236.76 569.29 239.4 593.43 239.4 593.66 236.76 569.56 236.76"/><polygon class="cls-13" points="587.15 242.04 589.93 244.69 587.24 274.31 584.18 274.31 587.15 242.04"/><polygon class="cls-13" points="674.76 242.04 671.74 242.04 671.19 252.67 652.97 252.67 651.68 274.31 654.74 274.31 655.85 255.34 674.1 255.34 674.76 242.04"/><polygon class="cls-13" points="716.3 168.11 768.73 168.11 768.74 165.66 716.38 165.66 716.3 168.11"/><polygon class="cls-13" points="733.72 170.57 736.59 173.04 735.45 228.9 714.43 228.9 714.51 226.3 732.5 226.3 733.72 170.57"/><polygon class="cls-13" points="873.24 160.76 855.83 160.76 855.92 163.21 870.45 163.21 873.24 160.76"/><polygon class="cls-13" points="891.78 180.48 891.49 175.51 879.8 175.51 877.08 122.48 874.24 122.48 877 177.99 888.71 177.99 888.85 180.48 891.78 180.48"/><polygon class="cls-13" points="913.24 239.4 913.07 236.76 888.96 236.76 889.1 239.4 913.24 239.4"/><polygon class="cls-13" points="895.29 242.04 892.41 244.69 894.06 274.31 897.13 274.31 895.29 242.04"/><polyline class="cls-13" points="931.14 236.76 931.34 239.4 946.43 239.4 946.64 242.04 949.66 242.04 949.23 236.76 931.14 236.76"/><polygon class="cls-13" points="999.22 198.05 998.94 195.52 1016.66 195.52 1017.26 200.59 1014.3 200.59 1014 198.05 999.22 198.05"/><polygon class="cls-13" points="1076.54 242.04 1130.92 242.04 1131.38 244.69 1076.93 244.69 1076.54 242.04"/><polygon class="cls-13" points="1036.57 260.71 1039.62 260.71 1041.33 274.31 1044.4 274.31 1042.33 258.02 1036.24 258.02 1036.57 260.71"/><polygon class="cls-13" points="1143.89 213.36 1164.74 213.36 1170.19 242.04 1173.21 242.04 1167.23 210.79 1143.43 210.79 1143.89 213.36"/><polygon class="cls-13" points="1184.46 122.48 1181.61 122.48 1184.07 134.28 1212.7 134.28 1216.43 151.05 1219.32 151.05 1215.03 131.91 1186.43 131.91 1184.46 122.48"/><polygon class="cls-13" points="1225.9 180.48 1222.97 180.48 1229.71 210.79 1232.68 210.79 1225.9 180.48"/><polygon class="cls-13" points="1326.09 226.3 1380.05 226.3 1380.82 228.9 1326.79 228.9 1326.09 226.3"/><polygon class="cls-13" points="1352.38 122.48 1360.82 151.05 1363.71 151.05 1355.22 122.48 1352.38 122.48"/><polygon class="cls-13" points="768.34 258.02 768.33 260.71 774.42 260.71 774.43 258.02 768.34 258.02"/><polygon class="cls-14" points="305.29 303.07 302.75 298.41 305.73 298.41 307 300.75 321.88 300.73 323.11 303.07 305.29 303.07"/><polygon class="cls-14" points="347.93 274.31 344.86 274.31 351.91 288.93 357.95 288.93 356.81 286.52 353.78 286.52 347.93 274.31"/><polygon class="cls-14" points="525.88 274.31 529.31 286.52 532.34 286.52 533 288.93 526.97 288.93 522.81 274.31 525.88 274.31"/><polygon class="cls-14" points="587.24 274.31 592.85 300.75 595.83 300.75 596.32 303.07 590.38 303.07 584.18 274.31 587.24 274.31"/><polygon class="cls-14" points="654.74 274.31 656.42 286.52 659.44 286.52 659.76 288.93 653.73 288.93 651.68 274.31 654.74 274.31"/><polygon class="cls-14" points="1041.33 274.31 1033.55 300.75 1030.57 300.75 1029.89 303.07 1035.84 303.07 1044.4 274.31 1041.33 274.31"/><polygon class="cls-14" points="1160.56 303.07 1162.62 298.41 1159.64 298.41 1158.61 300.75 1143.72 300.75 1142.75 303.07 1160.56 303.07"/><polygon class="cls-14" points="1322.38 300.75 1337.27 300.75 1338.78 298.41 1341.76 298.41 1338.74 303.07 1320.93 303.07 1322.38 300.75"/><polygon class="cls-14" points="177.35 298.41 180.56 303.07 198.38 303.07 196.82 300.75 181.94 300.75 180.34 298.41 177.35 298.41"/><polygon class="cls-14" points="894.06 274.31 892.47 286.52 889.45 286.52 889.14 288.93 895.18 288.93 897.13 274.31 894.06 274.31"/><polygon class="cls-14" points="768.39 286.52 768.41 288.93 774.45 288.93 774.44 286.52 768.39 286.52"/><polygon class="cls-14" points="421.56 274.31 418.5 274.31 430.01 303.07 435.95 303.07 435.04 300.75 432.06 300.75 421.56 274.31"/><polygon class="cls-13" points="180.56 303.07 182.15 305.39 199.92 305.39 198.38 303.07 180.56 303.07"/><polygon class="cls-13" points="305.29 303.07 323.11 303.07 324.32 305.39 306.55 305.39 305.29 303.07"/><polygon class="cls-13" points="351.91 288.93 353.07 291.32 359.09 291.31 357.95 288.93 351.91 288.93"/><polygon class="cls-13" points="526.97 288.93 527.64 291.31 533.66 291.31 533 288.93 526.97 288.93"/><polygon class="cls-13" points="590.38 303.07 590.88 305.39 596.8 305.39 596.32 303.07 590.38 303.07"/><polygon class="cls-13" points="653.73 288.93 654.06 291.31 660.08 291.31 659.76 288.93 653.73 288.93"/><polygon class="cls-13" points="1029.89 303.07 1029.22 305.38 1035.15 305.38 1035.84 303.07 1029.89 303.07"/><polygon class="cls-13" points="1160.56 303.07 1159.54 305.38 1141.77 305.39 1142.75 303.07 1160.56 303.07"/><polygon class="cls-13" points="1320.93 303.07 1319.48 305.39 1337.25 305.39 1338.74 303.07 1320.93 303.07"/><polygon class="cls-13" points="768.41 288.93 768.44 291.31 774.46 291.32 774.45 288.93 768.41 288.93"/><polygon class="cls-13" points="895.18 288.93 894.86 291.31 888.84 291.32 889.14 288.93 895.18 288.93"/><polygon class="cls-15" points="732.56 223.7 714.59 223.7 714.51 226.3 732.5 226.3 732.56 223.7"/><polygon class="cls-16" points="408.73 226.3 462.69 226.3 463.09 223.7 409.19 223.7 408.73 226.3"/><polygon class="cls-17" points="534.95 223.7 481.05 223.7 480.68 226.3 534.64 226.3 534.95 223.7"/><polygon class="cls-18" points="1379.29 223.7 1325.39 223.7 1326.09 226.3 1380.05 226.3 1379.29 223.7"/><polygon class="cls-19" points="123.95 274.31 179.18 274.31 179.97 271.54 124.82 271.54 123.95 274.31"/><polygon class="cls-20" points="154.99 252.67 185.35 252.67 186.11 250 155.79 250 154.99 252.67"/><polygon class="cls-21" points="159.76 236.76 189.89 236.76 190.64 234.14 160.54 234.14 159.76 236.76"/><polygon class="cls-22" points="206.51 242.04 242.76 242.04 243.44 239.4 207.24 239.4 206.51 242.04"/><polygon class="cls-23" points="252.82 274.31 308.05 274.31 308.67 271.54 253.51 271.54 252.82 274.31"/><polygon class="cls-24" points="358.1 239.4 352.06 239.4 351.52 242.04 357.56 242.04 358.1 239.4"/><polygon class="cls-25" points="427.82 255.34 421.74 255.34 421.28 258.02 427.37 258.02 427.82 255.34"/><polygon class="cls-26" points="593.9 234.14 569.82 234.14 569.56 236.76 593.66 236.76 593.9 234.14"/><polygon class="cls-27" points="671.33 250 653.13 250 652.97 252.67 671.19 252.67 671.33 250"/><polygon class="cls-28" points="888.96 236.76 913.07 236.76 912.89 234.14 888.82 234.14 888.96 236.76"/><polygon class="cls-29" points="949.01 234.14 930.95 234.14 931.14 236.76 949.23 236.76 949.01 234.14"/><polygon class="cls-30" points="1035.9 255.34 1036.24 258.02 1042.33 258.02 1041.99 255.34 1035.9 255.34"/><polygon class="cls-31" points="1130.47 239.4 1076.16 239.4 1076.54 242.04 1130.92 242.04 1130.47 239.4"/><polygon class="cls-32" points="1007.28 271.54 1007.58 274.31 1038.26 274.31 1037.92 271.54 1007.28 271.54"/><polygon class="cls-33" points="1044.06 271.54 1044.4 274.31 1062.81 274.31 1062.43 271.54 1044.06 271.54"/><polygon class="cls-34" points="1080.82 271.54 1081.22 274.31 1136.44 274.31 1135.97 271.54 1080.82 271.54"/><polygon class="cls-35" points="1154.35 271.54 1154.85 274.31 1210.08 274.31 1209.51 271.54 1154.35 271.54"/><polygon class="cls-36" points="1393.35 271.54 1338.2 271.54 1338.94 274.31 1394.17 274.31 1393.35 271.54"/><polygon class="cls-37" points="860.2 271.54 860.31 274.31 890.99 274.31 890.84 271.54 860.2 271.54"/><polygon class="cls-38" points="896.97 271.54 897.13 274.31 915.54 274.31 915.35 271.54 896.97 271.54"/><polygon class="cls-39" points="713.04 274.31 768.27 274.31 768.28 271.54 713.12 271.54 713.04 274.31"/><polygon class="cls-40" points="774.41 271.54 774.4 274.31 841.9 274.31 841.82 271.54 774.41 271.54"/><polygon class="cls-41" points="933.74 271.54 933.95 274.31 989.17 274.31 988.89 271.54 933.74 271.54"/><polygon class="cls-42" points="565.77 274.31 584.18 274.31 584.43 271.54 566.05 271.54 565.77 274.31"/><polygon class="cls-43" points="590.31 274.31 651.68 274.31 651.84 271.54 590.56 271.54 590.31 274.31"/><polygon class="cls-44" points="657.81 274.31 694.63 274.31 694.74 271.54 657.97 271.54 657.81 274.31"/><polygon class="cls-45" points="492.13 274.31 522.81 274.31 523.15 271.54 492.51 271.54 492.13 274.31"/><polygon class="cls-46" points="528.95 274.31 547.36 274.31 547.66 271.54 529.28 271.54 528.95 274.31"/><polygon class="cls-47" points="400.09 274.31 418.5 274.31 418.97 271.54 400.59 271.54 400.09 274.31"/><polygon class="cls-48" points="424.63 274.31 455.31 274.31 455.74 271.54 425.1 271.54 424.63 274.31"/><polygon class="cls-49" points="326.45 274.31 344.86 274.31 345.43 271.54 327.05 271.54 326.45 274.31"/><polygon class="cls-50" points="351 274.31 381.68 274.31 382.2 271.54 351.56 271.54 351 274.31"/><polygon class="cls-51" points="1016.36 193 998.66 193 998.94 195.52 1016.66 195.52 1016.36 193"/><polygon class="cls-52" points="485.5 193 467.8 193 467.41 195.52 485.13 195.52 485.5 193"/><polygon class="cls-53" points="216.39 143.83 164.6 143.83 163.85 146.23 215.71 146.23 216.39 143.83"/><polygon class="cls-54" points="308.47 143.83 285.45 143.83 284.85 146.23 307.9 146.23 308.47 143.83"/><polygon class="cls-55" points="300.92 175.51 330.15 175.51 330.71 173.04 301.5 173.04 300.92 175.51"/><polygon class="cls-56" points="295.67 173.04 260.62 173.04 259.98 175.51 295.07 175.51 295.67 173.04"/><polygon class="cls-57" points="406.3 143.83 383.28 143.83 382.8 146.23 405.84 146.23 406.3 143.83"/><polygon class="cls-58" points="475.35 143.83 458.09 143.83 457.7 146.23 474.98 146.23 475.35 143.83"/><polygon class="cls-59" points="509.55 146.23 561.41 146.23 561.67 143.83 509.88 143.83 509.55 146.23"/><polygon class="cls-60" points="594.86 158.33 577.47 158.33 577.23 160.76 594.64 160.76 594.86 158.33"/><polygon class="cls-61" points="768.75 163.21 716.45 163.21 716.38 165.66 768.74 165.66 768.75 163.21"/><polygon class="cls-62" points="873.12 158.33 855.73 158.33 855.83 160.76 873.24 160.76 873.12 158.33"/><polygon class="cls-63" points="924.75 151.05 924.57 148.64 907.27 148.64 907.42 151.05 924.75 151.05"/><polygon class="cls-64" points="1270.69 148.64 1271.3 151.05 1305.95 151.05 1305.31 148.64 1270.69 148.64"/><polygon class="cls-65" points="1392.59 151.05 1391.84 148.64 1362.99 148.64 1363.71 151.05 1392.59 151.05"/><polygon class="cls-66" points="1215.03 131.91 1214.5 129.55 1185.94 129.55 1186.43 131.91 1215.03 131.91"/><polygon class="cls-67" points="1213.54 151.05 1213.01 148.64 1184.16 148.64 1184.66 151.05 1213.54 151.05"/><polygon class="cls-68" points="1253.97 151.05 1253.39 148.64 1218.78 148.64 1219.32 151.05 1253.97 151.05"/><polygon class="cls-69" points="891.49 175.51 891.35 173.04 879.67 173.04 879.8 175.51 891.49 175.51"/><polygon class="cls-70" points="1046.04 151.05 1045.71 148.64 1022.64 148.64 1022.94 151.05 1046.04 151.05"/><polygon class="cls-71" points="1065.84 168.11 1065.48 165.66 1048.03 165.66 1048.36 168.11 1065.84 168.11"/><polygon class="cls-72" points="1086.47 151.05 1086.1 148.64 1063.02 148.64 1063.37 151.05 1086.47 151.05"/><polygon class="cls-73" points="1070.2 177.99 1078.98 177.99 1078.61 175.51 1069.84 175.51 1070.2 177.99"/><polygon class="cls-74" points="1038 177.99 1046.78 177.99 1046.45 175.51 1037.67 175.51 1038 177.99"/><polygon class="cls-75" points="630.19 151.05 699.5 151.05 699.59 148.64 630.37 148.64 630.19 151.05"/><polygon class="cls-76" points="838.04 148.64 768.82 148.64 768.81 151.05 838.12 151.05 838.04 148.64"/><polygon class="cls-77" points="979.7 180.48 979.45 177.99 961.89 177.99 962.12 180.48 979.7 180.48"/><polygon class="cls-78" points="168.31 208.23 144.54 208.23 143.74 210.79 167.54 210.79 168.31 208.23"/><polygon class="cls-79" points="215.86 208.23 198.03 208.23 197.3 210.79 215.15 210.79 215.86 208.23"/><polygon class="cls-80" points="269.34 208.23 251.51 208.23 250.85 210.79 268.7 210.79 269.34 208.23"/><polygon class="cls-81" points="1196.45 208.23 1196.98 210.79 1226.73 210.79 1226.17 208.23 1196.45 208.23"/><polygon class="cls-82" points="1232.11 208.23 1232.68 210.79 1268.39 210.79 1267.77 208.23 1232.11 208.23"/><polygon class="cls-83" points="1166.74 208.23 1142.96 208.23 1143.43 210.79 1167.23 210.79 1166.74 208.23"/><polygon class="cls-84" points="625.73 210.79 697.14 210.79 697.24 208.23 625.92 208.23 625.73 210.79"/><polygon class="cls-85" points="774.43 255.34 768.35 255.34 768.34 258.02 774.43 258.02 774.43 255.34"/><polygon class="cls-86" points="911.19 208.23 911.36 210.79 929.21 210.79 929.02 208.23 911.19 208.23"/><polygon class="cls-87" points="1055.92 223.7 1056.28 226.3 1074.27 226.3 1073.89 223.7 1055.92 223.7"/><polygon class="cls-13" points="430.01 303.07 430.94 305.39 436.86 305.38 435.95 303.07 430.01 303.07"/><polygon class="cls-2" points="198.38 303.07 199.92 305.39 203.4 292.58 201.87 290.25 198.38 303.07"/><polygon class="cls-2" points="1320.93 303.07 1319.48 305.39 1316 291.73 1317.43 289.39 1320.93 303.07"/><g/><g/><g/><g/></svg>